# xmcd CD database file
#
# Track frame offsets:
#	150
#	20717
#	41562
#	59700
#	87412
#	106550
#	143397
#
# Disc length: 2376 seconds
#
# Revision: 0
# Processed by: cddbd v1.5.2PL0 Copyright (c) Steve Scherf et al.
# Submitted via: CDex 1.81
#
DISCID=55094607
DTITLE=The Great Jazz Trio - Kindness, Joy, Love and Happiness
DYEAR=1977
DGENRE=Jazz
TTITLE0=Freedom Jazz Dance
TTITLE1=Doom
TTITLE2=Old Folks
TTITLE3=Ah, Oui
TTITLE4=Mr. P.C.
TTITLE5=All Blues
TTITLE6=A Child Is Born
EXTD=YEAR: 1977
EXTT0=
EXTT1=
EXTT2=
EXTT3=
EXTT4=
EXTT5=
EXTT6=
PLAYORDER=
